<svg xmlns="http://www.w3.org/2000/svg" version="1.1" xmlns:xlink="http://www.w3.org/1999/xlink" width="512" height="512" x="0" y="0" viewBox="0 0 24 24" style="enable-background:new 0 0 512 512" xml:space="preserve" class=""><g><path fill="#02007c" d="M16.76 5.81H7.24a.95.95 0 0 0-.95.95v4.76c0 2.63 2.13 4.77 4.76 4.77h5.71c2.63 0 4.77-2.14 4.77-4.77v-.95c0-2.62-2.14-4.76-4.77-4.76zm2.86 5.71a2.86 2.86 0 0 1-2.86 2.86h-5.71a2.86 2.86 0 0 1-2.86-2.86V7.71h8.57c1.58 0 2.86 1.29 2.86 2.86v.95z" opacity="1" data-original="#02007c" class=""></path><path fill="#ff2b60" d="M19.62 10.57v.95a2.86 2.86 0 0 1-2.86 2.86h-5.71a2.86 2.86 0 0 1-2.86-2.86V7.71h8.57c1.58 0 2.86 1.29 2.86 2.86z" opacity="1" data-original="#ff2b60" class=""></path><path fill="#02007c" d="M7.24 7.714a.953.953 0 0 1-.954-.952V4.857a.954.954 0 0 0-.954-.952H3.428a.953.953 0 1 1 0-1.905h1.904A2.86 2.86 0 0 1 8.19 4.857v1.905a.95.95 0 0 1-.95.952z" opacity="1" data-original="#02007c" class=""></path><path fill="#ff2b60" d="M17.238 19.143c-.262 0-.477.214-.477.476s.215.476.477.476a.476.476 0 1 0 0-.952zM10.57 19.143a.476.476 0 1 0 .005.952.476.476 0 0 0-.005-.952z" opacity="1" data-original="#ff2b60" class=""></path><g fill="#02007c"><path d="M10.57 17.238c-1.31 0-2.38 1.068-2.38 2.381S9.26 22 10.57 22c1.312 0 2.383-1.067 2.383-2.38s-1.07-2.382-2.383-2.382zm0 2.857a.476.476 0 1 1 .004-.95.476.476 0 0 1-.004.95zM17.238 17.238c-1.313 0-2.38 1.068-2.38 2.381S15.924 22 17.237 22s2.38-1.067 2.38-2.38-1.068-2.382-2.38-2.382zm0 2.857c-.262 0-.477-.214-.477-.476s.215-.476.477-.476a.477.477 0 1 1 0 .952z" fill="#02007c" opacity="1" data-original="#02007c" class=""></path></g></g></svg>